<?xml version="1.0" encoding="UTF-8" standalone="no"?>
<svg
   xmlns:dc="http://purl.org/dc/elements/1.1/"
   xmlns:cc="http://creativecommons.org/ns#"
   xmlns:rdf="http://www.w3.org/1999/02/22-rdf-syntax-ns#"
   xmlns:svg="http://www.w3.org/2000/svg"
   xmlns="http://www.w3.org/2000/svg"
   id="svg8"
   version="1.1"
   viewBox="0 0 63.236291 63.236289"
   height="63.23629mm"
   width="63.23629mm">
  <defs
     id="defs2" />
  <metadata
     id="metadata5">
    <rdf:RDF>
      <cc:Work
         rdf:about="">
        <dc:format>image/svg+xml</dc:format>
        <dc:type
           rdf:resource="http://purl.org/dc/dcmitype/StillImage" />
        <dc:title></dc:title>
      </cc:Work>
    </rdf:RDF>
  </metadata>
  <g
     transform="translate(-6.0278548,9.6708602)"
     id="layer1">
    <g
       transform="translate(-26.269344,-40.618041)"
       id="g828">
      <path
         id="path842"
         d="m 50.753681,86.784061 c -1.559869,-0.572895 -2.76221,-1.643775 -3.493722,-3.111725 -0.631484,-1.267222 -0.674391,-1.602531 -0.674391,-5.270127 v -3.916802 h 4.101042 c 2.255572,0 4.101041,0.04511 4.101041,0.100238 0,0.05513 -0.416719,0.792265 -0.926042,1.63808 -0.729361,1.211223 -0.926041,1.818428 -0.926041,2.858937 0,3.239076 2.555428,5.400685 5.689541,4.812723 1.208133,-0.226648 2.704481,-1.568524 4.011748,-3.597609 0.557884,-0.865923 1.133398,-1.574408 1.278919,-1.574408 0.145521,0 0.721034,0.708485 1.278919,1.574408 0.557884,0.865926 1.473515,1.989249 2.034736,2.496278 2.712889,2.450933 6.84499,0.988925 7.69208,-2.721589 0.276709,-1.212075 -0.05451,-2.466123 -1.077344,-4.078959 -0.440145,-0.694042 -0.800266,-1.317289 -0.800266,-1.384996 0,-0.06771 1.845468,-0.123103 4.101041,-0.123103 h 4.101042 v 3.916802 c 0,3.667596 -0.04291,4.002905 -0.674391,5.270127 -0.751309,1.507678 -1.942968,2.546048 -3.587991,3.126446 -1.561412,0.550897 -24.725256,0.537898 -26.229921,-0.01471 z m 5.741736,-6.333504 c -0.357187,-0.357187 -0.649433,-0.824391 -0.649433,-1.038235 0,-0.213842 1.071563,-2.007735 2.38125,-3.986432 1.309688,-1.978695 2.38125,-3.652668 2.38125,-3.719941 0,-0.06727 -3.184922,-0.154025 -7.077604,-0.192784 l -7.077604,-0.07047 0.105897,-9.855729 c 0.06661,-6.199035 0.01158,-9.855729 -0.148299,-9.855729 -0.139806,0 -1.259022,1.815703 -2.487146,4.034896 l -2.232952,4.034895 -0.132291,8.095946 c -0.142722,8.734226 -0.120943,8.608168 -1.621236,9.384001 -1.011513,0.523073 -5.026888,0.512495 -6.048759,-0.01593 -1.603551,-0.829236 -1.590422,-0.743897 -1.590422,-10.337721 0,-10.319984 -0.142443,-9.630269 3.221773,-15.599968 1.22795,-2.17896 2.933767,-5.211902 3.790706,-6.739871 1.868544,-3.331715 3.378836,-5.021016 5.234088,-5.854461 1.291092,-0.580004 1.705461,-0.619969 6.467478,-0.62377 l 5.088004,-0.0041 3.345333,6.807186 3.345336,6.807186 -0.669906,1.791773 c -0.368451,0.985474 -1.501632,3.964662 -2.518185,6.620418 l -1.848276,4.828645 h 1.823907 c 1.231892,0 1.823908,-0.102018 1.823908,-0.314301 0,-0.238554 6.348807,-16.574253 9.990061,-25.70477 l 0.405159,-1.015947 5.054994,0.09723 c 6.015683,0.115713 7.00446,0.412529 9.095211,2.730246 1.350801,1.497437 8.425073,13.927951 9.162361,16.099585 0.354722,1.044808 0.423463,2.675044 0.423463,10.042703 0,9.62918 0.01363,9.540407 -1.590421,10.369886 -1.191016,0.615897 -5.182166,0.539036 -6.264047,-0.120634 -1.514385,-0.923385 -1.532189,-1.030415 -1.606489,-9.657583 l -0.06825,-7.924625 -2.154354,-3.906502 c -1.184894,-2.148577 -2.273088,-3.833121 -2.41821,-3.743432 -0.170772,0.105544 -0.22674,3.579236 -0.158647,9.846751 l 0.105209,9.683681 -7.077604,0.07047 c -3.892682,0.03876 -7.077604,0.117467 -7.077604,0.174911 0,0.05745 0.954868,1.543378 2.12193,3.302074 2.641724,3.980929 2.786104,4.285197 2.387121,5.030703 -0.408091,0.762526 -1.477169,1.162762 -2.147544,0.803987 -0.282845,-0.151374 -1.600015,-1.907561 -2.927043,-3.902642 -1.327025,-1.99508 -2.496841,-3.720806 -2.599589,-3.83495 -0.102749,-0.114144 -1.301494,1.473071 -2.663875,3.527142 -3.131453,4.721305 -3.626131,5.108689 -4.89865,3.836167 z"
         style="fill:#d0d0d0;fill-opacity:1;stroke-width:0.26458332" />
      <path
         id="path840"
         d="m 50.142676,86.421785 c -1.321178,-0.600096 -2.839764,-2.327449 -3.250043,-3.69684 -0.168886,-0.56369 -0.307065,-2.61842 -0.307065,-4.566068 v -3.541178 h 3.96875 c 2.182812,0 3.96875,0.08139 3.96875,0.180856 0,0.09947 -0.386953,0.803336 -0.859896,1.56414 -1.471118,2.366536 -1.022967,5.202576 1.07497,6.802752 0.811162,0.618702 1.181275,0.712668 2.807039,0.712668 2.356929,0 3.09672,-0.479853 4.93133,-3.198629 0.727705,-1.07841 1.375373,-1.960746 1.439265,-1.960746 0.06389,0 0.71156,0.882336 1.439264,1.960746 1.678737,2.487779 2.576394,3.139548 4.517343,3.279944 4.192576,0.303265 6.57875,-3.924554 4.291586,-7.603829 -0.470516,-0.756904 -0.855498,-1.457573 -0.855517,-1.557046 -1.6e-5,-0.09947 1.756156,-0.157951 3.902604,-0.129958 l 3.902636,0.0509 0.08406,3.124102 c 0.106828,3.970507 -0.215331,5.496681 -1.469615,6.962031 -1.846966,2.157762 -1.439635,2.103575 -15.812359,2.103575 -11.772659,0 -12.778356,-0.03559 -13.7731,-0.487418 z m 19.657026,-5.526521 c -0.256342,-0.05491 -1.677229,-1.896512 -3.157527,-4.092453 -2.450378,-3.635002 -2.721819,-3.947221 -3.030479,-3.485743 -4.879735,7.295695 -4.949008,7.382814 -5.936274,7.465571 -1.070345,0.08972 -1.631,-0.379442 -1.631,-1.364848 0,-0.342231 1.026914,-2.175309 2.282031,-4.073507 1.255117,-1.8982 2.282031,-3.520881 2.282031,-3.605961 0,-0.08508 -3.184922,-0.186399 -7.077604,-0.225158 l -7.077604,-0.07047 0.09651,-10.054167 c 0.08566,-8.924105 0.05203,-10.009559 -0.29919,-9.657291 -0.217632,0.218281 -1.332622,2.06375 -2.477755,4.101041 l -2.082062,3.704167 -0.133133,8.069792 c -0.07322,4.438385 -0.232048,8.271007 -0.352945,8.51694 -0.456502,0.928624 -1.580323,1.370589 -3.780304,1.486675 -2.662715,0.140504 -3.926063,-0.233244 -4.616647,-1.365787 -0.472311,-0.774581 -0.507551,-1.413576 -0.505549,-9.166995 0.0016,-6.183712 0.09504,-8.683196 0.362102,-9.686151 0.197972,-0.743476 1.700081,-3.771955 3.338019,-6.729952 5.687662,-10.271503 5.884439,-10.53882 8.731166,-11.86105 1.392177,-0.646631 1.667221,-0.676314 6.35,-0.685314 l 4.894791,-0.0094 3.260548,6.614584 c 1.793301,3.63802 3.273523,6.793177 3.289384,7.011458 0.02445,0.336546 -1.639067,4.886048 -4.111643,11.244791 l -0.617294,1.5875 -5.540706,0.140417 -5.540705,0.14042 7.276041,0.05132 7.276042,0.05132 0.840785,-2.176113 C 63.5807,58.966345 68.295562,46.995675 70.10628,42.470828 l 1.746999,-4.365625 4.7625,0.0083 c 7.919076,0.01387 8.48234,0.405594 13.493749,9.384369 1.74625,3.128698 3.65125,6.641041 4.233333,7.805208 l 1.058334,2.116667 0.07959,8.842425 c 0.08538,9.485108 0.03308,9.942999 -1.230831,10.775944 -1.005755,0.662816 -4.858213,0.826924 -6.204741,0.264308 -1.685911,-0.704418 -1.771999,-1.184386 -1.773192,-9.886158 l -10e-4,-7.61527 -2.314056,-4.15859 c -1.272733,-2.287224 -2.403356,-4.162459 -2.512497,-4.167187 -0.10914,-0.0047 -0.198437,2.967965 -0.198437,6.605986 v 6.614583 l -9.855729,0.0613 -9.855729,0.0613 9.921875,0.137136 9.921874,0.137136 v 3.175 3.175 l -7.077604,0.07047 c -3.892682,0.03876 -7.077604,0.125511 -7.077604,0.192784 0,0.06727 1.071563,1.741246 2.38125,3.719941 1.309688,1.978697 2.38125,3.740687 2.38125,3.915534 0,0.935387 -1.174699,1.77043 -2.185865,1.55384 z"
         style="fill:#a3adba;fill-opacity:1;stroke-width:0.26458332" />
      <path
         id="path838"
         d="m 56.428068,80.517907 c -0.731946,-0.731946 -0.318186,-1.812118 2.048872,-5.348811 1.301504,-1.944616 2.293692,-3.608348 2.20486,-3.697179 -0.08883,-0.08883 -3.296822,-0.16151 -7.128872,-0.16151 h -6.96736 v -3.176902 -3.176902 l 17.396354,0.06805 17.396353,0.06805 0.07454,3.108854 0.07454,3.108854 H 74.37521 c -4.362963,0 -7.152148,0.09846 -7.152148,0.252471 0,0.138859 1.080895,1.91888 2.401988,3.955603 2.311789,3.564069 2.388722,3.730947 2.048643,4.443883 -0.27799,0.582771 -0.561491,0.758082 -1.329312,0.822013 l -0.975966,0.08126 -2.664409,-3.983868 c -1.465427,-2.191126 -2.71344,-3.983866 -2.773363,-3.983866 -0.05992,0 -1.312865,1.785938 -2.784311,3.96875 -2.532499,3.756819 -2.72143,3.96875 -3.538066,3.96875 -0.474485,0 -1.005578,-0.142875 -1.180203,-0.3175 z"
         style="fill:#a3a3a3;fill-opacity:1;stroke-width:0.26458332" />
      <path
         id="path836"
         d="m 56.384459,80.323634 c -0.516332,-0.964776 -0.269817,-1.570855 2.087544,-5.13239 1.298789,-1.962229 2.290977,-3.638148 2.20486,-3.724264 -0.08612,-0.08611 -3.291885,-0.156573 -7.123935,-0.156573 h -6.96736 v -3.042708 -3.042708 h 17.4625 17.462499 v 3.042708 3.042708 h -7.099652 c -3.90481,0 -7.172332,0.07268 -7.261164,0.16151 -0.08883,0.08883 0.903357,1.752563 2.204861,3.697179 2.59335,3.874804 2.917446,4.897403 1.724424,5.440979 -1.244113,0.566856 -1.763411,0.12024 -4.376629,-3.764082 -1.37777,-2.047936 -2.593485,-3.778186 -2.701594,-3.844999 -0.108109,-0.06682 -1.393764,1.668595 -2.857011,3.856466 -2.57108,3.844317 -2.691106,3.977947 -3.572951,3.977947 -0.63137,0 -0.996881,-0.15767 -1.186392,-0.511773 z"
         style="fill:#8c8c8c;fill-opacity:1;stroke-width:0.26458332" />
      <path
         id="path834"
         d="m 56.526342,80.419633 c -0.228677,-0.228674 -0.414629,-0.675159 -0.413229,-0.992188 0.0013,-0.317026 1.0615,-2.183757 2.355779,-4.148288 1.294275,-1.964531 2.298133,-3.661172 2.230797,-3.770312 -0.06734,-0.109141 -3.270565,-0.198438 -7.118279,-0.198438 h -6.995842 v -3.042708 -3.042708 h 17.330208 17.330208 v 3.042708 3.042708 h -6.96736 c -3.832051,0 -7.040041,0.07268 -7.128873,0.16151 -0.08883,0.08883 0.903357,1.752563 2.204861,3.697179 1.376034,2.055976 2.366372,3.807507 2.366372,4.185216 0,0.819981 -0.647496,1.481095 -1.450586,1.481095 -0.767313,0 -1.287473,-0.615868 -3.973372,-4.704453 -1.164167,-1.772142 -2.22223,-3.189356 -2.351249,-3.149367 -0.129021,0.03999 -1.366501,1.734161 -2.749955,3.764828 -1.383453,2.030663 -2.647108,3.779591 -2.808123,3.886504 -0.496507,0.329673 -1.424763,0.223308 -1.861357,-0.213286 z"
         style="fill:#767676;fill-opacity:1;stroke-width:0.26458332" />
      <path
         id="path832"
         d="m 56.526342,80.419633 c -0.228677,-0.228674 -0.415608,-0.675159 -0.415404,-0.992188 2.04e-4,-0.317026 1.0716,-2.183757 2.38088,-4.148288 1.30928,-1.964531 2.380675,-3.661172 2.380879,-3.770312 2.04e-4,-0.109141 -3.214317,-0.198438 -7.143379,-0.198438 h -7.14375 v -3.042708 -3.042708 h 17.330208 17.330208 v 3.042708 3.042708 h -7.14375 c -3.929062,0 -7.143583,0.0893 -7.143379,0.198438 2.03e-4,0.10914 1.071599,1.805781 2.380879,3.770312 1.30928,1.964531 2.380676,3.831262 2.38088,4.148288 5.29e-4,0.745882 -0.670844,1.407962 -1.427615,1.407962 -0.765284,0 -1.174335,-0.480145 -3.87939,-4.553622 -1.228288,-1.849649 -2.352312,-3.365418 -2.497833,-3.368373 -0.145521,-0.003 -1.217083,1.444749 -2.38125,3.217121 -1.164167,1.772375 -2.395141,3.556032 -2.735498,3.963686 -0.691687,0.828448 -1.634638,0.963465 -2.272686,0.325414 z"
         style="fill:#606060;fill-opacity:1;stroke-width:0.26458332" />
      <path
         id="path830"
         d="m 56.54845,80.351553 c -0.240836,-0.266121 -0.437882,-0.682371 -0.437882,-0.924999 0,-0.242631 1.071562,-2.055916 2.38125,-4.029525 1.309687,-1.973606 2.38125,-3.700484 2.38125,-3.837501 0,-0.149622 -2.853217,-0.249121 -7.14375,-0.249121 h -7.14375 v -3.042708 -3.042708 h 17.330208 17.330208 v 3.042708 3.042708 h -7.14375 c -3.929062,0 -7.14375,0.07856 -7.14375,0.174586 0,0.09602 1.071563,1.816224 2.38125,3.82267 1.309688,2.00645 2.38125,3.873963 2.38125,4.150035 0,0.704133 -0.897133,1.436883 -1.631826,1.332825 -0.460771,-0.06526 -1.271606,-1.059447 -3.200222,-3.923866 -1.420699,-2.110052 -2.730386,-3.867316 -2.910417,-3.905035 -0.18003,-0.03772 -1.213559,1.271971 -2.296731,2.910416 -1.083173,1.638448 -2.31357,3.425479 -2.734212,3.971182 -0.852379,1.105794 -1.696559,1.28466 -2.399126,0.508333 z"
         style="fill:#333333;fill-opacity:1;stroke-width:0.26458332" />
    </g>
  </g>
</svg>
